<svg viewBox="0 0 330 124" height="124" width="330"
    style="width: 330px; height: 124px; position: absolute; top: 50%; left: 50%; transform: translate(-50%, -50%) scale(1.09879); z-index: 0; cursor: pointer;">
    <defs id="SvgjsDefs1001"></defs>
    <g id="SvgjsG1007" featurekey="symbolContainer" transform="matrix(1,0,0,1,0,0)" fill="#15b7b9">
        <rect width="110" height="124" rx="8"></rect>
    </g>
    <g id="SvgjsG1008" featurekey="monogramFeature-0"
        transform="matrix(2.1328458455482298,0,0,2.1328458455482298,20.000002161167824,-19.506358758682154)"
        fill="#f5f5f5">
        <path
            d="M14.34 24.840000000000003 l0.06 6.48 c0 2.58 4.02 2.7 4.02 0.06 l0 -6.48 c0 -2.64 -3.96 -2.76 -4.08 -0.06 z M0.72 16.560000000000002 l0 0 c0.06 -0.06 30.72 -0.48 30.84 -0.36 c0.84 0.78 1.26 9.06 1.26 18.12 c-1.26 1.2 -2.76 1.38 -3 1.44 c-2.34 0.24 -2.46 3.42 -0.3 3.9 c1.38 0.36 3.06 1.8 3.3 2.4 c-0.18 8.76 -0.54 16.56 -1.08 17.04 c-1.26 1.08 -30.42 1.38 -31.2 0 c-1.2 -2.22 -0.06 -42.48 0.18 -42.54 z M14.16 42.54 l-0.12 7.32 c-0.06 2.64 3.96 2.7 4.02 0.06 l0.18 -7.26 c0 -2.7 -4.02 -2.76 -4.08 -0.12 z">
        </path>
    </g>
    <g id="SvgjsG1009" featurekey="nameFeature-0"
        transform="matrix(1.9485580786175514,0,0,1.9485580786175514,125.323459496344,11.552617475505883)"
        fill="#15b7b9">
        <path
            d="M17.84 24.48 c2.96 0.8 5.76 3.44 5.76 7.32 c0 5.08 -3.2 8.2 -10.16 8.2 l-11.04 0 l0 -28 l10.44 0 c5.8 0 8.72 3.28 8.72 7.04 c0 2.96 -1.92 4.64 -3.72 5.44 z M12.28 17.12 l-4.04 0 l0 5.64 l4.04 0 c2.48 0 3.48 -1.16 3.48 -2.84 c0 -1.8 -1.16 -2.8 -3.48 -2.8 z M13.12 34.88 c3.2 0 4.64 -1.32 4.64 -3.8 c0 -2.12 -1.44 -3.6 -4.88 -3.6 l-4.64 0 l0 7.4 l4.88 0 z M32.8 11.719999999999999 l0 4.88 l-5.72 0 l0 -4.88 l5.72 0 z M32.8 19.2 l0 20.8 l-5.72 0 l0 -20.8 l5.72 0 z M46.440000000000005 35.2 c1.08 0 1.88 -0.12 2.76 -0.44 l0 4.8 c-0.88 0.4 -2.24 0.68 -4.24 0.68 c-3.24 0 -5.96 -1.12 -5.96 -7 l0 -9.32 l-2.92 0 l0 -4.72 l2.92 0 l0 -4.88 l5.72 0 l0 4.88 l4.44 0 l0 4.72 l-4.44 0 l0 9.28 c0 0.96 0.28 2 1.72 2 z M66.88 11.600000000000001 c7.8 0 14.52 5.88 14.52 14.4 s-6.72 14.4 -14.52 14.4 s-14.52 -5.88 -14.52 -14.4 s6.72 -14.4 14.52 -14.4 z M66.88 34.92 c4.72 0 8.44 -3.72 8.44 -8.92 s-3.72 -8.92 -8.44 -8.92 s-8.44 3.72 -8.44 8.92 s3.72 8.92 8.44 8.92 z M94.76 11.52 c4.92 0 8.04 3.08 9.52 5.8 l-4.32 2.56 c-1.52 -2.12 -3 -3.2 -5.2 -3.2 c-1.96 0 -3.4 1.16 -3.4 2.76 s0.92 2.44 3.12 3.24 l1.92 0.68 c6.2 2.2 8.64 4.96 8.64 8.8 c0 5.64 -5.36 8.44 -10.12 8.44 c-5.04 0 -8.96 -3 -10.32 -6.92 l4.48 -2.36 c1 2.04 2.68 4 5.84 4 c2.28 0 4.04 -1 4.04 -3.08 c0 -2 -1.2 -2.88 -4.24 -4.04 l-1.72 -0.6 c-4.12 -1.48 -7.44 -3.52 -7.44 -8.4 c0 -4.48 4.2 -7.68 9.2 -7.68 z">
        </path>
    </g>
</svg>