<svg width="48" height="48" viewBox="0 0 48 48" fill="none" xmlns="http://www.w3.org/2000/svg">
<rect width="48" height="48" rx="8" fill="#4B4B4B"/>
<g opacity="0.5" clip-path="url(#clip0_789_5224)">
<path d="M17.899 9.42099C17.7033 9.40805 17.5071 9.43706 17.3235 9.5061C17.1399 9.57513 16.9732 9.68259 16.8345 9.82129C16.6958 9.95998 16.5883 10.1267 16.5193 10.3103C16.4503 10.4939 16.4212 10.6901 16.4342 10.8858V30.8661H12.3546C12.2068 30.8749 12.0643 30.9242 11.9427 31.0087C11.821 31.0932 11.7251 31.2096 11.6653 31.345C11.6055 31.4805 11.5842 31.6299 11.6037 31.7767C11.6233 31.9234 11.6829 32.062 11.776 32.1771L18.0455 38.4539C18.1582 38.5565 18.2984 38.6239 18.4488 38.648C18.5993 38.6721 18.7535 38.6519 18.8926 38.5897C19.0318 38.5275 19.1497 38.4261 19.2321 38.298C19.3145 38.1698 19.3577 38.0204 19.3565 37.868V10.8785C19.3695 10.6828 19.3405 10.4866 19.2714 10.303C19.2024 10.1194 19.0949 9.95266 18.9562 9.81396C18.8175 9.67527 18.6508 9.56781 18.4672 9.49877C18.2836 9.42974 18.0874 9.40072 17.8917 9.41367L17.899 9.42099ZM36.0116 15.8369L28.8633 9.56748C28.7423 9.45456 28.5917 9.3784 28.4291 9.34792C28.2664 9.31744 28.0985 9.33389 27.9448 9.39535C27.7912 9.4568 27.6582 9.56073 27.5615 9.69497C27.4647 9.82921 27.4082 9.98822 27.3984 10.1534V37.1429C27.3975 37.3475 27.4395 37.5501 27.5216 37.7376C27.6038 37.925 27.7243 38.0932 27.8755 38.2312C28.0266 38.3692 28.2049 38.474 28.399 38.5389C28.5932 38.6037 28.7987 38.6272 29.0024 38.6077C29.205 38.6216 29.4083 38.5943 29.6 38.5274C29.7917 38.4605 29.9679 38.3554 30.1178 38.2185C30.2678 38.0816 30.3884 37.9156 30.4724 37.7308C30.5563 37.5459 30.6019 37.3459 30.6064 37.1429V17.1553H35.2792C35.4413 17.1793 35.6069 17.1534 35.7538 17.0809C35.9008 17.0084 36.0222 16.8929 36.1017 16.7496C36.1813 16.6064 36.2153 16.4423 36.1992 16.2792C36.1831 16.1161 36.1177 15.9619 36.0116 15.8369Z" fill="white"/>
</g>
<defs>
<clipPath id="clip0_789_5224">
<rect width="29.3333" height="29.3333" fill="white" transform="translate(9.33301 9.33301)"/>
</clipPath>
</defs>
</svg>
