<svg width="16" height="16" viewBox="0 0 16 16" fill="none" xmlns="http://www.w3.org/2000/svg">
    <path
        d="M12.583 11.6667V10.75C12.583 10.6284 12.5347 10.5119 12.4488 10.4259C12.3628 10.34 12.2462 10.2917 12.1247 10.2917C12.0031 10.2917 11.8865 10.34 11.8006 10.4259C11.7146 10.5119 11.6663 10.6284 11.6663 10.75V12.125C11.6663 12.2466 11.7146 12.3631 11.8006 12.4491C11.8865 12.535 12.0031 12.5833 12.1247 12.5833H13.4997C13.6212 12.5833 13.7378 12.535 13.8238 12.4491C13.9097 12.3631 13.958 12.2466 13.958 12.125C13.958 12.0034 13.9097 11.8869 13.8238 11.8009C13.7378 11.715 13.6212 11.6667 13.4997 11.6667H12.583V11.6667ZM9.51997 14.8658H2.49967C2.25656 14.8658 2.0234 14.7693 1.85149 14.5973C1.67958 14.4254 1.58301 14.1923 1.58301 13.9492V2.04167C1.58301 1.79855 1.67958 1.56539 1.85149 1.39349C2.0234 1.22158 2.25656 1.125 2.49967 1.125H13.4905C13.7336 1.125 13.9668 1.22158 14.1387 1.39349C14.3106 1.56539 14.4072 1.79855 14.4072 2.04167V8.23054C13.5247 7.64252 12.4497 7.41693 11.4053 7.60061C10.3609 7.78429 9.42736 8.36313 8.79848 9.21695C8.1696 10.0708 7.89369 11.134 8.02804 12.1859C8.16239 13.2377 8.69667 14.1975 9.51997 14.8658V14.8658ZM4.33117 4.33058C4.2698 4.32864 4.20865 4.33905 4.15138 4.3612C4.0941 4.38335 4.04186 4.41678 3.99776 4.45951C3.95365 4.50224 3.91859 4.5534 3.89464 4.60995C3.87069 4.6665 3.85835 4.72728 3.85835 4.78869C3.85835 4.8501 3.87069 4.91088 3.89464 4.96743C3.91859 5.02397 3.95365 5.07513 3.99776 5.11786C4.04186 5.16059 4.0941 5.19402 4.15138 5.21617C4.20865 5.23832 4.2698 5.24873 4.33117 5.24679H9.82751C9.88889 5.24873 9.95003 5.23832 10.0073 5.21617C10.0646 5.19402 10.1168 5.16059 10.1609 5.11786C10.205 5.07513 10.2401 5.02397 10.264 4.96743C10.288 4.91088 10.3003 4.8501 10.3003 4.78869C10.3003 4.72728 10.288 4.6665 10.264 4.60995C10.2401 4.5534 10.205 4.50224 10.1609 4.45951C10.1168 4.41678 10.0646 4.38335 10.0073 4.3612C9.95003 4.33905 9.88889 4.32864 9.82751 4.33058H4.33117ZM4.33117 7.07875C4.2698 7.07681 4.20865 7.08722 4.15138 7.10937C4.0941 7.13152 4.04186 7.16495 3.99776 7.20768C3.95365 7.25041 3.91859 7.30157 3.89464 7.35812C3.87069 7.41466 3.85835 7.47544 3.85835 7.53685C3.85835 7.59826 3.87069 7.65905 3.89464 7.71559C3.91859 7.77214 3.95365 7.8233 3.99776 7.86603C4.04186 7.90876 4.0941 7.94219 4.15138 7.96434C4.20865 7.98649 4.2698 7.9969 4.33117 7.99496H7.99509C8.05647 7.9969 8.11761 7.98649 8.17489 7.96434C8.23217 7.94219 8.28441 7.90876 8.32851 7.86603C8.37261 7.8233 8.40768 7.77214 8.43163 7.71559C8.45558 7.65905 8.46792 7.59826 8.46792 7.53685C8.46792 7.47544 8.45558 7.41466 8.43163 7.35812C8.40768 7.30157 8.37261 7.25041 8.32851 7.20768C8.28441 7.16495 8.23217 7.13152 8.17489 7.10937C8.11761 7.08722 8.05647 7.07681 7.99509 7.07875H4.33117V7.07875ZM12.1247 14.875C11.2738 14.875 10.4577 14.537 9.85604 13.9353C9.25436 13.3336 8.91634 12.5176 8.91634 11.6667C8.91634 10.8158 9.25436 9.99971 9.85604 9.39803C10.4577 8.79635 11.2738 8.45833 12.1247 8.45833C12.9756 8.45833 13.7916 8.79635 14.3933 9.39803C14.995 9.99971 15.333 10.8158 15.333 11.6667C15.333 12.5176 14.995 13.3336 14.3933 13.9353C13.7916 14.537 12.9756 14.875 12.1247 14.875V14.875Z"
        fill="white" />
</svg>