<svg width="286" height="286" viewBox="0 0 286 286" fill="none" xmlns="http://www.w3.org/2000/svg">
<g opacity="0.3" filter="url(#filter0_f_3065_1601)">
<circle cx="143" cy="143" r="43" fill="#44E7D9"/>
</g>
<rect x="119" y="119" width="48" height="48" rx="8" fill="#00C6A9"/>
<g clip-path="url(#clip0_3065_1601)">
<path d="M136.899 128.421C136.703 128.408 136.507 128.437 136.323 128.506C136.14 128.575 135.973 128.683 135.834 128.821C135.696 128.96 135.588 129.127 135.519 129.31C135.45 129.494 135.421 129.69 135.434 129.886V149.866H131.355C131.207 149.875 131.064 149.924 130.943 150.009C130.821 150.093 130.725 150.21 130.665 150.345C130.605 150.481 130.584 150.63 130.604 150.777C130.623 150.923 130.683 151.062 130.776 151.177L137.046 157.454C137.158 157.556 137.298 157.624 137.449 157.648C137.599 157.672 137.754 157.652 137.893 157.59C138.032 157.528 138.15 157.426 138.232 157.298C138.315 157.17 138.358 157.02 138.357 156.868V129.879C138.369 129.683 138.34 129.487 138.271 129.303C138.202 129.119 138.095 128.953 137.956 128.814C137.818 128.675 137.651 128.568 137.467 128.499C137.284 128.43 137.087 128.401 136.892 128.414L136.899 128.421ZM155.012 134.837L147.863 128.567C147.742 128.455 147.592 128.378 147.429 128.348C147.266 128.317 147.098 128.334 146.945 128.395C146.791 128.457 146.658 128.561 146.561 128.695C146.465 128.829 146.408 128.988 146.398 129.153V156.143C146.398 156.348 146.439 156.55 146.522 156.738C146.604 156.925 146.724 157.093 146.875 157.231C147.027 157.369 147.205 157.474 147.399 157.539C147.593 157.604 147.799 157.627 148.002 157.608C148.205 157.622 148.408 157.594 148.6 157.527C148.792 157.461 148.968 157.355 149.118 157.218C149.268 157.082 149.388 156.916 149.472 156.731C149.556 156.546 149.602 156.346 149.606 156.143V136.155H154.279C154.441 136.179 154.607 136.153 154.754 136.081C154.901 136.008 155.022 135.893 155.102 135.75C155.181 135.606 155.215 135.442 155.199 135.279C155.183 135.116 155.118 134.962 155.012 134.837Z" fill="white"/>
</g>
<defs>
<filter id="filter0_f_3065_1601" x="0" y="0" width="286" height="286" filterUnits="userSpaceOnUse" color-interpolation-filters="sRGB">
<feFlood flood-opacity="0" result="BackgroundImageFix"/>
<feBlend mode="normal" in="SourceGraphic" in2="BackgroundImageFix" result="shape"/>
<feGaussianBlur stdDeviation="50" result="effect1_foregroundBlur_3065_1601"/>
</filter>
<clipPath id="clip0_3065_1601">
<rect width="29.3333" height="29.3333" fill="white" transform="translate(128.333 128.333)"/>
</clipPath>
</defs>
</svg>
