<svg width="36" height="36" viewBox="0 0 36 36" fill="none" xmlns="http://www.w3.org/2000/svg">
    <rect width="36" height="36" rx="8" fill="#00C6A9" />
    <path
        d="M13.424 7.06599C13.2772 7.05628 13.1301 7.07804 12.9924 7.12982C12.8547 7.18159 12.7296 7.26219 12.6256 7.36621C12.5216 7.47023 12.441 7.59527 12.3892 7.73297C12.3375 7.87066 12.3157 8.01783 12.3254 8.16461V23.1498H9.26574C9.15487 23.1564 9.04796 23.1934 8.95674 23.2568C8.86553 23.3201 8.79355 23.4074 8.74871 23.509C8.70387 23.6106 8.68789 23.7226 8.70255 23.8327C8.7172 23.9428 8.76192 24.0467 8.83178 24.1331L13.5339 28.8407C13.6184 28.9176 13.7235 28.9682 13.8364 28.9863C13.9492 29.0044 14.0649 28.9892 14.1692 28.9425C14.2736 28.8959 14.362 28.8199 14.4238 28.7237C14.4856 28.6276 14.5181 28.5155 14.5172 28.4012V8.15912C14.5269 8.01233 14.5051 7.86517 14.4533 7.72747C14.4015 7.58978 14.321 7.46474 14.2169 7.36072C14.1129 7.2567 13.9879 7.1761 13.8502 7.12432C13.7125 7.07255 13.5653 7.05079 13.4185 7.0605L13.424 7.06599ZM27.0085 11.878L21.6472 7.17585C21.5565 7.09116 21.4435 7.03405 21.3216 7.01119C21.1996 6.98833 21.0736 7.00066 20.9584 7.04675C20.8431 7.09285 20.7434 7.17079 20.6708 7.27147C20.5983 7.37215 20.5559 7.49141 20.5486 7.6153V27.8574C20.5479 28.0109 20.5794 28.1628 20.641 28.3034C20.7026 28.444 20.793 28.5701 20.9063 28.6736C21.0197 28.7771 21.1535 28.8557 21.299 28.9044C21.4446 28.953 21.5988 28.9706 21.7516 28.956C21.9035 28.9665 22.056 28.946 22.1998 28.8958C22.3436 28.8456 22.4757 28.7668 22.5881 28.6641C22.7006 28.5614 22.791 28.437 22.854 28.2983C22.917 28.1597 22.9512 28.0097 22.9546 27.8574V12.8667H26.4592C26.5807 12.8848 26.7049 12.8653 26.8151 12.8109C26.9254 12.7566 27.0164 12.6699 27.0761 12.5625C27.1357 12.455 27.1613 12.332 27.1492 12.2097C27.1371 12.0874 27.088 11.9716 27.0085 11.878Z"
        fill="white" />
</svg>